<svg xmlns="http://www.w3.org/2000/svg" version="1.0" width="794.000000pt" height="630.000000pt" viewBox="0 0 794.000000 630.000000" preserveAspectRatio="xMidYMid meet">
<metadata fill="#ffffff">
Created by potrace 1.16, written by Peter Selinger 2001-2019
</metadata>
<g transform="translate(0.000000,630.000000) scale(0.100000,-0.100000)" fill="#ffffff" stroke="none">
<path d="M3931 6286 c-24 -8 -59 -29 -77 -47 -62 -60 -65 -86 -62 -465 3 -320 4 -341 24 -378 31 -60 80 -95 152 -108 117 -22 220 21 263 109 23 47 24 56 27 354 2 191 -1 328 -7 365 -22 116 -90 174 -211 180 -39 2 -83 -2 -109 -10z m140 -155 l24 -19 0 -322 0 -322 -24 -19 c-32 -26 -67 -24 -96 6 l-25 24 0 309 c0 298 1 310 21 336 25 31 66 34 100 7z" fill="#ffffff"/>
<path d="M2410 5790 l0 -500 360 0 360 0 0 500 0 500 -85 0 -85 0 0 -425 0 -425 -55 0 -55 0 0 425 0 425 -80 0 -80 0 0 -425 0 -425 -60 0 -60 0 0 425 0 425 -80 0 -80 0 0 -500z" fill="#ffffff"/>
<path d="M3230 5790 l0 -500 80 0 80 0 0 155 c0 124 3 161 17 190 9 19 19 35 22 35 4 0 38 -84 76 -187 l70 -188 84 -3 c82 -3 83 -3 75 20 -4 13 -51 137 -106 277 l-99 255 106 218 c58 120 105 221 105 223 0 3 -35 5 -78 5 l-79 0 -94 -202 -94 -201 -3 201 -2 202 -80 0 -80 0 0 -500z" fill="#ffffff"/>
<path d="M4448 5893 c-2 -219 -7 -405 -11 -414 -11 -22 -51 -39 -92 -39 l-35 0 0 -75 0 -75 58 0 c110 0 178 37 213 115 17 36 19 72 19 388 l0 347 85 0 85 0 0 -425 0 -425 80 0 80 0 0 500 0 500 -239 0 -240 0 -3 -397z" fill="#ffffff"/>
<path d="M5150 6285 c0 -3 -34 -219 -75 -481 -41 -262 -75 -485 -75 -496 0 -17 6 -19 72 -16 l73 3 7 55 c4 30 10 70 13 88 l6 32 89 0 89 0 7 -47 c3 -27 9 -66 13 -88 l7 -40 82 -3 c82 -3 83 -3 77 20 -3 13 -36 226 -75 473 -39 248 -73 462 -76 478 l-6 27 -114 0 c-63 0 -114 -2 -114 -5z m145 -450 c15 -104 29 -198 31 -207 5 -16 -3 -18 -67 -18 l-71 0 5 28 c3 15 18 116 34 225 16 112 31 190 35 180 3 -10 18 -103 33 -208z" fill="#ffffff"/>
<path d="M1561 5864 c-189 -41 -347 -76 -349 -79 -3 -3 -3 -7 -1 -9 2 -2 167 -39 367 -81 l362 -77 34 29 c19 15 61 51 95 78 53 45 75 75 53 75 -4 0 -46 32 -92 70 -47 39 -94 70 -105 69 -11 0 -175 -34 -364 -75z" fill="#ffffff"/>
<path d="M5919 5870 c-45 -38 -86 -70 -91 -70 -24 0 3 -33 83 -100 49 -41 93 -76 98 -78 14 -5 715 148 725 158 6 6 8 10 5 10 -3 0 -164 34 -358 75 -193 41 -358 75 -365 75 -8 0 -51 -31 -97 -70z" fill="#ffffff"/>
<path d="M0 3975 l0 -1035 165 0 165 0 0 320 0 320 42 80 c24 44 45 80 48 80 3 0 73 -180 155 -400 l150 -400 168 0 c92 0 167 2 167 4 0 2 -99 259 -220 572 l-220 568 220 456 c121 251 220 460 220 463 0 4 -71 7 -159 7 l-158 0 -204 -434 -204 -435 -3 435 -2 434 -165 0 -165 0 0 -1035z" fill="#ffffff"/>
<path d="M1200 3976 l0 -1036 298 0 c316 0 377 7 465 51 69 35 107 68 147 129 64 100 74 155 75 390 0 211 -7 266 -46 358 -22 51 -99 135 -139 152 -17 7 -30 15 -30 19 1 3 18 18 39 33 48 32 93 96 116 163 27 80 40 252 27 371 -24 221 -106 329 -288 380 -47 13 -122 18 -361 21 l-303 5 0 -1036z m557 704 c59 -36 68 -66 68 -240 0 -137 -2 -159 -20 -190 -33 -56 -92 -80 -197 -80 l-88 0 0 265 0 265 103 0 c84 0 108 -4 134 -20z m11 -837 c48 -24 79 -72 87 -137 4 -29 5 -125 3 -213 -3 -145 -5 -165 -24 -190 -37 -51 -77 -63 -201 -63 l-113 0 0 317 0 316 106 -6 c71 -4 117 -12 142 -24z" fill="#ffffff"/>
<path d="M2370 3975 l0 -1035 435 0 435 0 0 150 0 150 -275 0 -275 0 0 300 0 300 220 0 220 0 0 150 0 150 -220 0 -220 0 0 280 0 280 275 0 275 0 0 155 0 155 -435 0 -435 0 0 -1035z" fill="#ffffff"/>
<path d="M3420 3975 l0 -1035 165 0 165 0 0 440 0 440 175 0 175 0 0 -440 0 -440 165 0 165 0 0 1035 0 1035 -165 0 -165 0 0 -445 0 -445 -175 0 -175 0 0 445 0 445 -165 0 -165 0 0 -1035z" fill="#ffffff"/>
<path d="M4570 4855 l0 -155 165 0 165 0 0 -880 0 -880 165 0 165 0 0 880 0 880 165 0 165 0 0 155 0 155 -495 0 -495 0 0 -155z" fill="#ffffff"/>
<path d="M5700 3975 l0 -1035 167 2 167 3 191 717 190 718 3 -720 2 -720 145 0 145 0 0 1035 0 1035 -200 0 -199 0 -14 -47 c-8 -27 -79 -294 -158 -594 l-144 -547 -3 594 -2 594 -145 0 -145 0 0 -1035z" fill="#ffffff"/>
<path d="M6940 3975 l0 -1035 160 0 160 0 0 440 0 440 180 0 180 0 0 -440 0 -440 160 0 160 0 0 1035 0 1035 -160 0 -160 0 0 -445 0 -445 -180 0 -180 0 0 445 0 445 -160 0 -160 0 0 -1035z" fill="#ffffff"/>
<path d="M1100 2630 c-407 -30 -821 -95 -916 -143 -65 -33 -125 -92 -155 -153 -23 -48 -24 -56 -24 -279 0 -258 5 -280 79 -362 20 -22 43 -56 51 -76 8 -19 35 -154 59 -299 127 -745 191 -900 436 -1065 177 -119 337 -174 655 -225 127 -21 174 -23 495 -23 394 0 466 8 746 80 452 115 682 297 899 707 98 188 207 485 260 713 34 141 57 173 145 199 70 21 220 21 289 0 93 -27 106 -47 151 -224 158 -627 429 -1080 744 -1243 184 -95 398 -162 666 -208 159 -27 645 -39 823 -20 237 26 454 71 587 122 114 43 246 127 339 214 154 146 219 339 326 974 25 151 53 288 62 305 9 17 33 51 54 76 66 79 69 92 69 352 0 224 -1 235 -24 283 -52 112 -137 165 -320 200 -406 79 -666 100 -1266 100 -495 -1 -548 -3 -1005 -46 -321 -30 -473 -74 -795 -232 -473 -232 -632 -234 -1090 -10 -338 165 -505 214 -825 243 -66 6 -196 18 -290 26 -196 19 -1035 28 -1225 14z m930 -311 c725 -37 1207 -169 1305 -358 41 -81 43 -293 4 -482 -54 -262 -213 -623 -345 -784 -180 -218 -493 -366 -889 -420 -171 -24 -511 -17 -685 15 -427 76 -640 213 -783 504 -118 238 -176 632 -133 897 35 214 90 342 191 439 192 183 525 231 1335 189z m4695 0 c271 -25 440 -91 555 -216 60 -65 88 -119 123 -228 41 -133 52 -217 51 -395 -2 -317 -77 -606 -207 -800 -43 -65 -143 -166 -209 -211 -116 -80 -287 -140 -508 -179 -175 -31 -515 -39 -685 -15 -449 61 -777 236 -952 507 -112 173 -238 481 -284 693 -27 122 -32 368 -11 452 48 185 453 324 1102 378 395 33 761 38 1025 14z" fill="#ffffff"/>
</g>
</svg>