<svg xmlns="http://www.w3.org/2000/svg" version="1.0" width="40.000000pt" height="40.000000pt" viewBox="0 0 40.000000 40.000000" preserveAspectRatio="xMidYMid meet">
<metadata fill="#ffffff">
Created by potrace 1.16, written by Peter Selinger 2001-2019
</metadata>
<g transform="translate(0.000000,40.000000) scale(0.100000,-0.100000)" fill="#ffffff" stroke="none">
<path d="M35 365 c-24 -23 -25 -29 -25 -165 0 -136 1 -142 25 -165 23 -24 29 -25 165 -25 136 0 142 1 165 25 24 23 25 29 25 165 0 136 -1 142 -25 165 -23 24 -29 25 -165 25 -136 0 -142 -1 -165 -25z m299 -31 c13 -12 16 -39 16 -133 0 -65 -2 -120 -5 -123 -3 -3 -22 3 -43 13 -20 11 -42 19 -49 19 -17 0 -16 4 4 43 20 39 25 71 18 115 -5 25 -14 35 -42 47 -46 19 -56 19 -84 -3 -30 -25 -34 -102 -8 -153 l18 -37 -49 -24 c-28 -14 -52 -23 -55 -20 -3 3 -5 58 -5 123 0 153 -4 149 150 149 94 0 122 -3 134 -16z" fill="#ffffff"/>
</g>
</svg>